<mxfile host="app.diagrams.net" modified="2021-04-06T06:23:42.251Z" agent="5.0 (Windows NT 6.1; Win64; x64) AppleWebKit/537.36 (KHTML, like Gecko) Chrome/87.0.4280.88 Safari/537.36" etag="NhYAZJ_bSO0avdm8g_1K" version="14.5.4" type="github">
  <diagram id="qW_l1qrL7joZymKoFlDq" name="Page-1">
    <mxGraphModel dx="868" dy="393" grid="1" gridSize="10" guides="1" tooltips="1" connect="1" arrows="1" fold="1" page="1" pageScale="1" pageWidth="827" pageHeight="1169" math="0" shadow="0">
      <root>
        <mxCell id="0" />
        <mxCell id="1" parent="0" />
        <mxCell id="bz_kqCFPdki_tDxigUgT-19" style="edgeStyle=orthogonalEdgeStyle;rounded=0;orthogonalLoop=1;jettySize=auto;html=1;exitX=0.5;exitY=1;exitDx=0;exitDy=0;" edge="1" parent="1" source="bz_kqCFPdki_tDxigUgT-1" target="bz_kqCFPdki_tDxigUgT-2">
          <mxGeometry relative="1" as="geometry" />
        </mxCell>
        <mxCell id="bz_kqCFPdki_tDxigUgT-1" value="&lt;font style=&quot;font-size: 18px&quot;&gt;读取原始&lt;br&gt;EEM矩阵&lt;/font&gt;" style="rounded=1;whiteSpace=wrap;html=1;fillColor=#dae8fc;strokeColor=#6c8ebf;" vertex="1" parent="1">
          <mxGeometry x="360" y="70" width="120" height="60" as="geometry" />
        </mxCell>
        <mxCell id="bz_kqCFPdki_tDxigUgT-20" style="edgeStyle=orthogonalEdgeStyle;rounded=0;orthogonalLoop=1;jettySize=auto;html=1;exitX=0.5;exitY=1;exitDx=0;exitDy=0;" edge="1" parent="1" source="bz_kqCFPdki_tDxigUgT-2" target="bz_kqCFPdki_tDxigUgT-3">
          <mxGeometry relative="1" as="geometry" />
        </mxCell>
        <mxCell id="bz_kqCFPdki_tDxigUgT-2" value="&lt;font style=&quot;font-size: 18px&quot;&gt;平滑滤波&lt;/font&gt;" style="shape=process;whiteSpace=wrap;html=1;backgroundOutline=1;fillColor=#dae8fc;strokeColor=#6c8ebf;" vertex="1" parent="1">
          <mxGeometry x="360" y="170" width="120" height="60" as="geometry" />
        </mxCell>
        <mxCell id="bz_kqCFPdki_tDxigUgT-21" style="edgeStyle=orthogonalEdgeStyle;rounded=0;orthogonalLoop=1;jettySize=auto;html=1;exitX=0.5;exitY=1;exitDx=0;exitDy=0;entryX=0.5;entryY=0;entryDx=0;entryDy=0;" edge="1" parent="1" source="bz_kqCFPdki_tDxigUgT-3" target="bz_kqCFPdki_tDxigUgT-11">
          <mxGeometry relative="1" as="geometry" />
        </mxCell>
        <mxCell id="bz_kqCFPdki_tDxigUgT-3" value="" style="rounded=0;whiteSpace=wrap;html=1;dashed=1;fillColor=#ffe6cc;strokeColor=#d79b00;" vertex="1" parent="1">
          <mxGeometry x="200" y="270" width="440" height="130" as="geometry" />
        </mxCell>
        <mxCell id="bz_kqCFPdki_tDxigUgT-5" value="&lt;font style=&quot;font-size: 18px&quot;&gt;猜测&lt;br&gt;组分数&lt;/font&gt;" style="rounded=1;whiteSpace=wrap;html=1;fillColor=#dae8fc;strokeColor=#6c8ebf;" vertex="1" parent="1">
          <mxGeometry x="220" y="330" width="70" height="60" as="geometry" />
        </mxCell>
        <mxCell id="bz_kqCFPdki_tDxigUgT-6" value="&lt;font style=&quot;font-size: 18px&quot;&gt;剔除&lt;br&gt;异常值&lt;/font&gt;" style="rounded=1;whiteSpace=wrap;html=1;fillColor=#dae8fc;strokeColor=#6c8ebf;" vertex="1" parent="1">
          <mxGeometry x="330" y="330" width="70" height="60" as="geometry" />
        </mxCell>
        <mxCell id="bz_kqCFPdki_tDxigUgT-7" value="&lt;span style=&quot;font-size: 18px&quot;&gt;标准化&lt;/span&gt;" style="rounded=1;whiteSpace=wrap;html=1;fillColor=#dae8fc;strokeColor=#6c8ebf;" vertex="1" parent="1">
          <mxGeometry x="440" y="330" width="70" height="60" as="geometry" />
        </mxCell>
        <mxCell id="bz_kqCFPdki_tDxigUgT-8" value="&lt;span style=&quot;font-size: 18px&quot;&gt;应用&lt;br&gt;约束&lt;/span&gt;" style="rounded=1;whiteSpace=wrap;html=1;fillColor=#dae8fc;strokeColor=#6c8ebf;" vertex="1" parent="1">
          <mxGeometry x="550" y="330" width="70" height="60" as="geometry" />
        </mxCell>
        <mxCell id="bz_kqCFPdki_tDxigUgT-10" value="模型搭建" style="text;html=1;strokeColor=none;fillColor=none;align=center;verticalAlign=middle;whiteSpace=wrap;rounded=0;dashed=1;fontSize=20;" vertex="1" parent="1">
          <mxGeometry x="357" y="280" width="126" height="30" as="geometry" />
        </mxCell>
        <mxCell id="bz_kqCFPdki_tDxigUgT-22" style="edgeStyle=orthogonalEdgeStyle;rounded=0;orthogonalLoop=1;jettySize=auto;html=1;exitX=0.5;exitY=1;exitDx=0;exitDy=0;" edge="1" parent="1" source="bz_kqCFPdki_tDxigUgT-11" target="bz_kqCFPdki_tDxigUgT-17">
          <mxGeometry relative="1" as="geometry" />
        </mxCell>
        <mxCell id="bz_kqCFPdki_tDxigUgT-11" value="" style="rounded=0;whiteSpace=wrap;html=1;dashed=1;fillColor=#ffe6cc;strokeColor=#d79b00;" vertex="1" parent="1">
          <mxGeometry x="200" y="461" width="440" height="130" as="geometry" />
        </mxCell>
        <mxCell id="bz_kqCFPdki_tDxigUgT-12" value="&lt;font style=&quot;font-size: 18px&quot;&gt;绘制&lt;br&gt;组分图&lt;/font&gt;" style="rounded=1;whiteSpace=wrap;html=1;fillColor=#dae8fc;strokeColor=#6c8ebf;" vertex="1" parent="1">
          <mxGeometry x="220" y="521" width="70" height="60" as="geometry" />
        </mxCell>
        <mxCell id="bz_kqCFPdki_tDxigUgT-13" value="&lt;font style=&quot;font-size: 18px&quot;&gt;一致性&lt;br&gt;匹配&lt;/font&gt;" style="rounded=1;whiteSpace=wrap;html=1;fillColor=#dae8fc;strokeColor=#6c8ebf;" vertex="1" parent="1">
          <mxGeometry x="330" y="521" width="70" height="60" as="geometry" />
        </mxCell>
        <mxCell id="bz_kqCFPdki_tDxigUgT-14" value="&lt;span style=&quot;font-size: 18px&quot;&gt;敏感度&lt;br&gt;分析&lt;br&gt;&lt;/span&gt;" style="rounded=1;whiteSpace=wrap;html=1;fillColor=#dae8fc;strokeColor=#6c8ebf;" vertex="1" parent="1">
          <mxGeometry x="440" y="521" width="70" height="60" as="geometry" />
        </mxCell>
        <mxCell id="bz_kqCFPdki_tDxigUgT-15" value="&lt;span style=&quot;font-size: 18px&quot;&gt;残差和半分裂分析&lt;/span&gt;" style="rounded=1;whiteSpace=wrap;html=1;fillColor=#dae8fc;strokeColor=#6c8ebf;" vertex="1" parent="1">
          <mxGeometry x="545" y="521" width="80" height="60" as="geometry" />
        </mxCell>
        <mxCell id="bz_kqCFPdki_tDxigUgT-16" value="模型验证" style="text;html=1;strokeColor=none;fillColor=none;align=center;verticalAlign=middle;whiteSpace=wrap;rounded=0;dashed=1;fontSize=20;" vertex="1" parent="1">
          <mxGeometry x="357" y="471" width="126" height="30" as="geometry" />
        </mxCell>
        <mxCell id="bz_kqCFPdki_tDxigUgT-23" style="edgeStyle=orthogonalEdgeStyle;rounded=0;orthogonalLoop=1;jettySize=auto;html=1;exitX=0.5;exitY=1;exitDx=0;exitDy=0;" edge="1" parent="1" source="bz_kqCFPdki_tDxigUgT-17" target="bz_kqCFPdki_tDxigUgT-18">
          <mxGeometry relative="1" as="geometry" />
        </mxCell>
        <mxCell id="bz_kqCFPdki_tDxigUgT-17" value="&lt;font style=&quot;font-size: 18px&quot;&gt;模型解释&lt;/font&gt;" style="shape=process;whiteSpace=wrap;html=1;backgroundOutline=1;dashed=1;fillColor=#dae8fc;strokeColor=#6c8ebf;" vertex="1" parent="1">
          <mxGeometry x="360" y="640" width="120" height="60" as="geometry" />
        </mxCell>
        <mxCell id="bz_kqCFPdki_tDxigUgT-18" value="&lt;font style=&quot;font-size: 18px&quot;&gt;结果导出&lt;/font&gt;" style="rounded=1;whiteSpace=wrap;html=1;dashed=1;fillColor=#dae8fc;strokeColor=#6c8ebf;" vertex="1" parent="1">
          <mxGeometry x="360" y="750" width="120" height="60" as="geometry" />
        </mxCell>
      </root>
    </mxGraphModel>
  </diagram>
</mxfile>
